<svg width="138" height="40" viewBox="0 0 138 40" fill="none" xmlns="http://www.w3.org/2000/svg">
    <rect width="138" height="40" rx="6" fill="#1847ED"/>
    <path d="M23.5753 24.5H16.0433V26.978H14.2933V22.988H15.4133C15.488 22.96 15.558 22.9273 15.6233 22.89C15.8007 22.7873 15.95 22.6427 16.0713 22.456C16.1927 22.26 16.286 22.036 16.3513 21.784C16.426 21.5227 16.4867 21.238 16.5333 20.93C16.5707 20.622 16.6033 20.342 16.6313 20.09C16.6687 19.8287 16.6967 19.572 16.7153 19.32C16.734 19.0587 16.748 18.788 16.7573 18.508C16.776 18.2187 16.7853 17.8873 16.7853 17.514C16.7947 17.1407 16.7993 16.7113 16.7993 16.226C16.8087 15.7407 16.8133 15.1667 16.8133 14.504H23.7013V22.988H25.3253V26.978H23.5753V24.5ZM17.6813 22.988H21.9513V16.016H18.4513C18.4327 16.632 18.4187 17.178 18.4093 17.654C18.4093 18.13 18.4 18.5733 18.3813 18.984C18.372 19.3853 18.3487 19.7773 18.3113 20.16C18.274 20.5333 18.218 20.9393 18.1433 21.378C18.0967 21.6673 18.022 21.9987 17.9193 22.372C17.854 22.5867 17.7747 22.792 17.6813 22.988ZM29.618 24.696C29.0393 24.696 28.5213 24.6027 28.064 24.416C27.616 24.22 27.2333 23.954 26.916 23.618C26.608 23.282 26.37 22.8807 26.202 22.414C26.0433 21.9473 25.964 21.434 25.964 20.874C25.964 20.3233 26.0433 19.8147 26.202 19.348C26.37 18.8813 26.608 18.48 26.916 18.144C27.2333 17.808 27.616 17.5467 28.064 17.36C28.5213 17.164 29.0393 17.066 29.618 17.066C30.1966 17.066 30.71 17.164 31.158 17.36C31.6153 17.5467 31.998 17.808 32.306 18.144C32.6233 18.48 32.8613 18.8813 33.02 19.348C33.188 19.8147 33.272 20.3233 33.272 20.874C33.272 21.434 33.188 21.9473 33.02 22.414C32.8613 22.8807 32.6233 23.282 32.306 23.618C31.998 23.954 31.6153 24.22 31.158 24.416C30.71 24.6027 30.1966 24.696 29.618 24.696ZM29.618 23.436C29.9726 23.436 30.2806 23.3613 30.542 23.212C30.8033 23.0627 31.018 22.8667 31.186 22.624C31.354 22.3813 31.4753 22.1107 31.55 21.812C31.634 21.504 31.676 21.1913 31.676 20.874C31.676 20.566 31.634 20.258 31.55 19.95C31.4753 19.642 31.354 19.3713 31.186 19.138C31.018 18.8953 30.8033 18.6993 30.542 18.55C30.2806 18.4007 29.9726 18.326 29.618 18.326C29.2633 18.326 28.9553 18.4007 28.694 18.55C28.4326 18.6993 28.218 18.8953 28.05 19.138C27.882 19.3713 27.756 19.642 27.672 19.95C27.5973 20.258 27.56 20.566 27.56 20.874C27.56 21.1913 27.5973 21.504 27.672 21.812C27.756 22.1107 27.882 22.3813 28.05 22.624C28.218 22.8667 28.4326 23.0627 28.694 23.212C28.9553 23.3613 29.2633 23.436 29.618 23.436ZM38.5373 17.262H45.3273V24.5H43.7313V18.452H40.1333V24.5H38.5373V17.262ZM50.3719 24.696C49.7932 24.696 49.2752 24.6027 48.8179 24.416C48.3699 24.22 47.9872 23.954 47.6699 23.618C47.3619 23.282 47.1239 22.8807 46.9559 22.414C46.7972 21.9473 46.7179 21.434 46.7179 20.874C46.7179 20.3233 46.7972 19.8147 46.9559 19.348C47.1239 18.8813 47.3619 18.48 47.6699 18.144C47.9872 17.808 48.3699 17.5467 48.8179 17.36C49.2752 17.164 49.7932 17.066 50.3719 17.066C50.9505 17.066 51.4639 17.164 51.9119 17.36C52.3692 17.5467 52.7519 17.808 53.0599 18.144C53.3772 18.48 53.6152 18.8813 53.7739 19.348C53.9419 19.8147 54.0259 20.3233 54.0259 20.874C54.0259 21.434 53.9419 21.9473 53.7739 22.414C53.6152 22.8807 53.3772 23.282 53.0599 23.618C52.7519 23.954 52.3692 24.22 51.9119 24.416C51.4639 24.6027 50.9505 24.696 50.3719 24.696ZM50.3719 23.436C50.7265 23.436 51.0345 23.3613 51.2959 23.212C51.5572 23.0627 51.7719 22.8667 51.9399 22.624C52.1079 22.3813 52.2292 22.1107 52.3039 21.812C52.3879 21.504 52.4299 21.1913 52.4299 20.874C52.4299 20.566 52.3879 20.258 52.3039 19.95C52.2292 19.642 52.1079 19.3713 51.9399 19.138C51.7719 18.8953 51.5572 18.6993 51.2959 18.55C51.0345 18.4007 50.7265 18.326 50.3719 18.326C50.0172 18.326 49.7092 18.4007 49.4479 18.55C49.1865 18.6993 48.9719 18.8953 48.8039 19.138C48.6359 19.3713 48.5099 19.642 48.4259 19.95C48.3512 20.258 48.3139 20.566 48.3139 20.874C48.3139 21.1913 48.3512 21.504 48.4259 21.812C48.5099 22.1107 48.6359 22.3813 48.8039 22.624C48.9719 22.8667 49.1865 23.0627 49.4479 23.212C49.7092 23.3613 50.0172 23.436 50.3719 23.436ZM55.3947 17.262H56.9067V18.242H56.9347C57.1587 17.822 57.4714 17.5233 57.8727 17.346C58.274 17.1593 58.708 17.066 59.1747 17.066C59.744 17.066 60.2387 17.1687 60.6587 17.374C61.088 17.57 61.4427 17.8453 61.7227 18.2C62.0027 18.5453 62.2127 18.9513 62.3527 19.418C62.4927 19.8847 62.5627 20.384 62.5627 20.916C62.5627 21.4013 62.4974 21.8727 62.3667 22.33C62.2454 22.7873 62.054 23.1933 61.7927 23.548C61.5407 23.8933 61.2187 24.1733 60.8267 24.388C60.4347 24.5933 59.9727 24.696 59.4407 24.696C59.2074 24.696 58.974 24.6727 58.7407 24.626C58.5074 24.5887 58.2834 24.5233 58.0687 24.43C57.854 24.3367 57.6534 24.22 57.4667 24.08C57.2894 23.9307 57.14 23.758 57.0187 23.562H56.9907V27.174H55.3947V17.262ZM60.9667 20.888C60.9667 20.5613 60.9247 20.244 60.8407 19.936C60.7567 19.628 60.6307 19.3573 60.4627 19.124C60.2947 18.8813 60.0847 18.69 59.8327 18.55C59.5807 18.4007 59.2914 18.326 58.9647 18.326C58.2927 18.326 57.784 18.5593 57.4387 19.026C57.1027 19.4927 56.9347 20.1133 56.9347 20.888C56.9347 21.252 56.9767 21.5927 57.0607 21.91C57.154 22.218 57.2894 22.484 57.4667 22.708C57.644 22.932 57.854 23.1093 58.0967 23.24C58.3487 23.3707 58.638 23.436 58.9647 23.436C59.3287 23.436 59.6367 23.3613 59.8887 23.212C60.1407 23.0627 60.346 22.8713 60.5047 22.638C60.6727 22.3953 60.7894 22.1247 60.8547 21.826C60.9294 21.518 60.9667 21.2053 60.9667 20.888ZM69.6653 18.452H67.2713V24.5H65.6753V18.452H63.1833V17.262H69.6653V18.452ZM76.7135 22.89C76.7135 23.086 76.7369 23.226 76.7835 23.31C76.8395 23.394 76.9422 23.436 77.0915 23.436H77.2595C77.3249 23.436 77.3995 23.4267 77.4835 23.408V24.514C77.4275 24.5327 77.3529 24.5513 77.2595 24.57C77.1755 24.598 77.0869 24.6213 76.9935 24.64C76.9002 24.6587 76.8069 24.6727 76.7135 24.682C76.6202 24.6913 76.5409 24.696 76.4755 24.696C76.1489 24.696 75.8782 24.6307 75.6635 24.5C75.4489 24.3693 75.3089 24.1407 75.2435 23.814C74.9262 24.122 74.5342 24.346 74.0675 24.486C73.6102 24.626 73.1669 24.696 72.7375 24.696C72.4109 24.696 72.0982 24.6493 71.7995 24.556C71.5009 24.472 71.2349 24.346 71.0015 24.178C70.7775 24.0007 70.5955 23.7813 70.4555 23.52C70.3249 23.2493 70.2595 22.9367 70.2595 22.582C70.2595 22.134 70.3389 21.77 70.4975 21.49C70.6655 21.21 70.8802 20.9907 71.1415 20.832C71.4122 20.6733 71.7109 20.5613 72.0375 20.496C72.3735 20.4213 72.7095 20.3653 73.0455 20.328C73.3349 20.272 73.6102 20.2347 73.8715 20.216C74.1329 20.188 74.3615 20.146 74.5575 20.09C74.7629 20.034 74.9215 19.95 75.0335 19.838C75.1549 19.7167 75.2155 19.5393 75.2155 19.306C75.2155 19.1007 75.1642 18.9327 75.0615 18.802C74.9682 18.6713 74.8469 18.5733 74.6975 18.508C74.5575 18.4333 74.3989 18.3867 74.2215 18.368C74.0442 18.34 73.8762 18.326 73.7175 18.326C73.2695 18.326 72.9009 18.4193 72.6115 18.606C72.3222 18.7927 72.1589 19.082 72.1215 19.474H70.5255C70.5535 19.0073 70.6655 18.62 70.8615 18.312C71.0575 18.004 71.3049 17.7567 71.6035 17.57C71.9115 17.3833 72.2569 17.2527 72.6395 17.178C73.0222 17.1033 73.4142 17.066 73.8155 17.066C74.1702 17.066 74.5202 17.1033 74.8655 17.178C75.2109 17.2527 75.5189 17.374 75.7895 17.542C76.0695 17.71 76.2935 17.9293 76.4615 18.2C76.6295 18.4613 76.7135 18.7833 76.7135 19.166V22.89ZM75.1175 20.874C74.8749 21.0327 74.5762 21.1307 74.2215 21.168C73.8669 21.196 73.5122 21.2427 73.1575 21.308C72.9895 21.336 72.8262 21.378 72.6675 21.434C72.5089 21.4807 72.3689 21.5507 72.2475 21.644C72.1262 21.728 72.0282 21.8447 71.9535 21.994C71.8882 22.134 71.8555 22.3067 71.8555 22.512C71.8555 22.6893 71.9069 22.8387 72.0095 22.96C72.1122 23.0813 72.2335 23.1793 72.3735 23.254C72.5229 23.3193 72.6815 23.366 72.8495 23.394C73.0269 23.422 73.1855 23.436 73.3255 23.436C73.5029 23.436 73.6942 23.4127 73.8995 23.366C74.1049 23.3193 74.2962 23.24 74.4735 23.128C74.6602 23.016 74.8142 22.876 74.9355 22.708C75.0569 22.5307 75.1175 22.316 75.1175 22.064V20.874ZM78.2068 23.352C78.4495 23.352 78.6782 23.268 78.8928 23.1C79.1168 22.932 79.2755 22.6893 79.3688 22.372C79.4248 22.1947 79.4668 22.022 79.4948 21.854C79.5322 21.6767 79.5602 21.49 79.5788 21.294C79.6068 21.098 79.6255 20.8787 79.6348 20.636C79.6442 20.3933 79.6535 20.1133 79.6628 19.796C79.6722 19.4787 79.6768 19.1193 79.6768 18.718C79.6862 18.3073 79.6908 17.822 79.6908 17.262H85.6968V24.5H84.1008V18.452H81.3148C81.3148 19.0587 81.3055 19.5953 81.2868 20.062C81.2775 20.5193 81.2588 20.9253 81.2308 21.28C81.2122 21.6347 81.1842 21.9473 81.1468 22.218C81.1095 22.4793 81.0582 22.7127 80.9928 22.918C80.9275 23.1513 80.8435 23.3707 80.7408 23.576C80.6475 23.772 80.5028 23.9447 80.3068 24.094C80.1202 24.234 79.8635 24.346 79.5368 24.43C79.2195 24.514 78.7995 24.556 78.2768 24.556C78.1275 24.556 78.0015 24.5513 77.8988 24.542C77.7962 24.542 77.6935 24.5327 77.5908 24.514V23.31C77.6935 23.3287 77.7822 23.3427 77.8568 23.352C77.9408 23.352 78.0575 23.352 78.2068 23.352ZM86.6289 17.262H88.3789L90.2689 22.666H90.2969L92.1309 17.262H93.7969L90.9829 24.892C90.8522 25.2187 90.7216 25.5313 90.5909 25.83C90.4696 26.1287 90.3156 26.39 90.1289 26.614C89.9516 26.8473 89.7276 27.0293 89.4569 27.16C89.1862 27.3 88.8409 27.37 88.4209 27.37C88.0476 27.37 87.6789 27.342 87.3149 27.286V25.942C87.4456 25.9607 87.5716 25.9793 87.6929 25.998C87.8142 26.026 87.9402 26.04 88.0709 26.04C88.2576 26.04 88.4116 26.0167 88.5329 25.97C88.6542 25.9233 88.7522 25.8533 88.8269 25.76C88.9109 25.676 88.9809 25.5733 89.0369 25.452C89.0929 25.3307 89.1442 25.1907 89.1909 25.032L89.3729 24.472L86.6289 17.262Z" fill="white"/>
    <path fill-rule="evenodd" clip-rule="evenodd" d="M111.327 13.8273C111.653 13.5019 112.18 13.5019 112.506 13.8273L117.089 18.4107C117.415 18.7361 117.415 19.2637 117.089 19.5892L112.506 24.1725C112.18 24.4979 111.653 24.4979 111.327 24.1725C111.002 23.8471 111.002 23.3194 111.327 22.994L115.321 18.9999L111.327 15.0058C111.002 14.6804 111.002 14.1528 111.327 13.8273Z" fill="white"/>
</svg>