<svg width="90" height="40" viewBox="0 0 90 40" fill="none" xmlns="http://www.w3.org/2000/svg">
    <rect width="90" height="40" rx="6" fill="#1847ED"/>
    <path d="M23.6925 24.5H16.1605V26.978H14.4105V22.988H15.5305C15.6052 22.96 15.6752 22.9273 15.7405 22.89C15.9178 22.7873 16.0672 22.6427 16.1885 22.456C16.3098 22.26 16.4032 22.036 16.4685 21.784C16.5432 21.5227 16.6038 21.238 16.6505 20.93C16.6878 20.622 16.7205 20.342 16.7485 20.09C16.7858 19.8287 16.8138 19.572 16.8325 19.32C16.8512 19.0587 16.8652 18.788 16.8745 18.508C16.8932 18.2187 16.9025 17.8873 16.9025 17.514C16.9118 17.1407 16.9165 16.7113 16.9165 16.226C16.9258 15.7407 16.9305 15.1667 16.9305 14.504H23.8185V22.988H25.4425V26.978H23.6925V24.5ZM17.7985 22.988H22.0685V16.016H18.5685C18.5498 16.632 18.5358 17.178 18.5265 17.654C18.5265 18.13 18.5172 18.5733 18.4985 18.984C18.4892 19.3853 18.4658 19.7773 18.4285 20.16C18.3912 20.5333 18.3352 20.9393 18.2605 21.378C18.2138 21.6673 18.1392 21.9987 18.0365 22.372C17.9712 22.5867 17.8918 22.792 17.7985 22.988ZM32.4791 22.89C32.4791 23.086 32.5025 23.226 32.5491 23.31C32.6051 23.394 32.7078 23.436 32.8571 23.436H33.0251C33.0905 23.436 33.1651 23.4267 33.2491 23.408V24.514C33.1931 24.5327 33.1185 24.5513 33.0251 24.57C32.9411 24.598 32.8525 24.6213 32.7591 24.64C32.6658 24.6587 32.5725 24.6727 32.4791 24.682C32.3858 24.6913 32.3065 24.696 32.2411 24.696C31.9145 24.696 31.6438 24.6307 31.4291 24.5C31.2145 24.3693 31.0745 24.1407 31.0091 23.814C30.6918 24.122 30.2998 24.346 29.8331 24.486C29.3758 24.626 28.9325 24.696 28.5031 24.696C28.1765 24.696 27.8638 24.6493 27.5651 24.556C27.2665 24.472 27.0005 24.346 26.7671 24.178C26.5431 24.0007 26.3611 23.7813 26.2211 23.52C26.0905 23.2493 26.0251 22.9367 26.0251 22.582C26.0251 22.134 26.1045 21.77 26.2631 21.49C26.4311 21.21 26.6458 20.9907 26.9071 20.832C27.1778 20.6733 27.4765 20.5613 27.8031 20.496C28.1391 20.4213 28.4751 20.3653 28.8111 20.328C29.1005 20.272 29.3758 20.2347 29.6371 20.216C29.8985 20.188 30.1271 20.146 30.3231 20.09C30.5285 20.034 30.6871 19.95 30.7991 19.838C30.9205 19.7167 30.9811 19.5393 30.9811 19.306C30.9811 19.1007 30.9298 18.9327 30.8271 18.802C30.7338 18.6713 30.6125 18.5733 30.4631 18.508C30.3231 18.4333 30.1645 18.3867 29.9871 18.368C29.8098 18.34 29.6418 18.326 29.4831 18.326C29.0351 18.326 28.6665 18.4193 28.3771 18.606C28.0878 18.7927 27.9245 19.082 27.8871 19.474H26.2911C26.3191 19.0073 26.4311 18.62 26.6271 18.312C26.8231 18.004 27.0705 17.7567 27.3691 17.57C27.6771 17.3833 28.0225 17.2527 28.4051 17.178C28.7878 17.1033 29.1798 17.066 29.5811 17.066C29.9358 17.066 30.2858 17.1033 30.6311 17.178C30.9765 17.2527 31.2845 17.374 31.5551 17.542C31.8351 17.71 32.0591 17.9293 32.2271 18.2C32.3951 18.4613 32.4791 18.7833 32.4791 19.166V22.89ZM30.8831 20.874C30.6405 21.0327 30.3418 21.1307 29.9871 21.168C29.6325 21.196 29.2778 21.2427 28.9231 21.308C28.7551 21.336 28.5918 21.378 28.4331 21.434C28.2745 21.4807 28.1345 21.5507 28.0131 21.644C27.8918 21.728 27.7938 21.8447 27.7191 21.994C27.6538 22.134 27.6211 22.3067 27.6211 22.512C27.6211 22.6893 27.6725 22.8387 27.7751 22.96C27.8778 23.0813 27.9991 23.1793 28.1391 23.254C28.2885 23.3193 28.4471 23.366 28.6151 23.394C28.7925 23.422 28.9511 23.436 29.0911 23.436C29.2685 23.436 29.4598 23.4127 29.6651 23.366C29.8705 23.3193 30.0618 23.24 30.2391 23.128C30.4258 23.016 30.5798 22.876 30.7011 22.708C30.8225 22.5307 30.8831 22.316 30.8831 22.064V20.874ZM33.9724 23.352C34.2151 23.352 34.4438 23.268 34.6584 23.1C34.8824 22.932 35.0411 22.6893 35.1344 22.372C35.1904 22.1947 35.2324 22.022 35.2604 21.854C35.2978 21.6767 35.3258 21.49 35.3444 21.294C35.3724 21.098 35.3911 20.8787 35.4004 20.636C35.4098 20.3933 35.4191 20.1133 35.4284 19.796C35.4378 19.4787 35.4424 19.1193 35.4424 18.718C35.4518 18.3073 35.4564 17.822 35.4564 17.262H41.4624V24.5H39.8664V18.452H37.0804C37.0804 19.0587 37.0711 19.5953 37.0524 20.062C37.0431 20.5193 37.0244 20.9253 36.9964 21.28C36.9778 21.6347 36.9498 21.9473 36.9124 22.218C36.8751 22.4793 36.8238 22.7127 36.7584 22.918C36.6931 23.1513 36.6091 23.3707 36.5064 23.576C36.4131 23.772 36.2684 23.9447 36.0724 24.094C35.8858 24.234 35.6291 24.346 35.3024 24.43C34.9851 24.514 34.5651 24.556 34.0424 24.556C33.8931 24.556 33.7671 24.5513 33.6644 24.542C33.5618 24.542 33.4591 24.5327 33.3564 24.514V23.31C33.4591 23.3287 33.5478 23.3427 33.6224 23.352C33.7064 23.352 33.8231 23.352 33.9724 23.352ZM43.2345 14.504H44.8305V16.016H43.2345V14.504ZM43.2345 17.262H44.8305V24.5H43.2345V17.262Z" fill="white"/>
    <path fill-rule="evenodd" clip-rule="evenodd" d="M63.3275 13.8273C63.6529 13.5019 64.1805 13.5019 64.506 13.8273L69.0893 18.4107C69.4147 18.7361 69.4147 19.2637 69.0893 19.5892L64.506 24.1725C64.1805 24.4979 63.6529 24.4979 63.3275 24.1725C63.002 23.8471 63.002 23.3194 63.3275 22.994L67.3215 18.9999L63.3275 15.0058C63.002 14.6804 63.002 14.1528 63.3275 13.8273Z" fill="white"/>
</svg>