<svg width="163" height="25" viewBox="0 0 163 25" fill="none" xmlns="http://www.w3.org/2000/svg">
    <path d="M1.69321 1.30081H0V23.4049H1.69321V1.30081Z" fill="url(#paint0_linear_661_22652)"/>
    <path d="M20.9065 15.7282L19.8811 16.7632H14.0772L17.219 23.4048H25.0219L20.9065 15.7282ZM19.8811 1.25806H11.528V5.67792H17.0215V12.4715H11.528V16.7632H14.0772L13.8091 16.1792L20.6713 15.2582L20.9065 15.7282L24.2788 12.3243V5.67792L19.8811 1.25806ZM3.06189 1.25806V23.4048H10.3709V1.25806H3.06189Z" fill="black"/>
    <path d="M41.3426 1.25806V18.9802H38.6288V23.4048H44.2681L48.6516 18.9802V1.25806H41.3426ZM34.7767 18.9802V1.25806H27.4536V18.9802L31.8512 23.4048H37.4717V18.9802H34.7767Z" fill="black"/>
    <path d="M73.7018 5.67792L69.3042 1.25806H60.8193V5.67792H66.247V10.4016H60.8193V14.2565H66.247V18.9802H60.8193V23.4048H69.3042L73.7018 18.9802V14.6268L71.5053 12.405L73.7018 10.188V5.67792ZM52.3532 1.25806V23.4048H59.6622V1.25806H52.3532Z" fill="black"/>
    <path d="M88.4516 5.96277V1.25806H76.7449V5.96277H78.9461V18.6811H76.7449V23.4048H88.4516V18.6811H86.2504V5.96277H88.4516Z" fill="black"/>
    <path d="M104.989 15.7425V18.9802H100.125V23.4048H107.914L112.298 18.9802V15.7425H104.989ZM107.914 1.25806H100.125V5.67792H104.989V10.1358H112.298V5.67792L107.914 1.25806ZM96.0569 1.25806L91.6593 5.67792V18.9802L96.0569 23.4048H98.9683V1.25806H96.0569Z" fill="black"/>
    <path d="M161.058 21.3017L155.762 12.4952H154.482L161.058 23.4048H153.288L146.736 12.4952H145.518L146.36 13.891V23.4048H139.991V12.4952H136.619V18.9802L132.188 23.4048H126.516V18.8995H129.31V12.4952H122.612V18.8995H125.359V23.4048H119.738L115.289 18.9802V12.4952H113.276V25H163V12.4952H161.058V21.3017Z" fill="url(#paint1_linear_661_22652)"/>
    <path d="M113.276 12.4953H115.28V5.68743L119.729 1.26757H125.35V5.75389H122.603V12.4953H129.3V5.75389H126.507V1.26757H132.179L136.609 5.68743V12.4953H139.982V3.37068L145.499 12.4953H146.722L139.982 1.26757H147.705L154.468 12.4953H155.743L154.684 10.7292V1.26757H161.048V12.4953H162.991V0H113.276V12.4953Z" fill="url(#paint2_linear_661_22652)"/>
    <defs>
        <linearGradient id="paint0_linear_661_22652" x1="0.846606" y1="23.4049" x2="0.846606" y2="1.30081" gradientUnits="userSpaceOnUse">
            <stop stop-color="#F2B40A"/>
            <stop offset="0.27" stop-color="#F2DA0C"/>
            <stop offset="0.5" stop-color="#F2DA0C"/>
            <stop offset="0.51" stop-color="#0060FF"/>
            <stop offset="1" stop-color="#010F83"/>
        </linearGradient>
        <linearGradient id="paint1_linear_661_22652" x1="122.607" y1="3.07158" x2="153.958" y2="34.1265" gradientUnits="userSpaceOnUse">
            <stop stop-color="#F2DA0C"/>
            <stop offset="0.67" stop-color="#F2AA09"/>
            <stop offset="1" stop-color="#F2DA0C"/>
        </linearGradient>
        <linearGradient id="paint2_linear_661_22652" x1="122.612" y1="-9.42366" x2="153.944" y2="21.622" gradientUnits="userSpaceOnUse">
            <stop stop-color="#0060FF"/>
            <stop offset="0.67" stop-color="#000B7F"/>
            <stop offset="1" stop-color="#0060FF"/>
        </linearGradient>
    </defs>
</svg>
