<svg width="32" height="32" viewBox="0 0 32 32" fill="none" xmlns="http://www.w3.org/2000/svg">
    <path fill-rule="evenodd" clip-rule="evenodd" d="M20.0001 16C20.0001 18.2092 18.2092 20 16.0001 20C13.7909 20 12.0001 18.2092 12.0001 16C12.0001 13.7909 13.7909 12 16.0001 12C18.2092 12 20.0001 13.7909 20.0001 16ZM17.3334 16C17.3334 16.7364 16.7365 17.3334 16.0001 17.3334C15.2637 17.3334 14.6667 16.7364 14.6667 16C14.6667 15.2636 15.2637 14.6667 16.0001 14.6667C16.7365 14.6667 17.3334 15.2636 17.3334 16Z" fill="#454A5F"/>
    <path fill-rule="evenodd" clip-rule="evenodd" d="M16.0001 2.66669C14.9944 2.66669 14.3039 3.22332 13.8852 3.81369C13.4993 4.3578 13.2775 5.0119 13.1304 5.51533C13.0597 5.75762 12.997 5.99998 12.9425 6.21038L12.9284 6.26481C12.8706 6.48786 12.8237 6.66521 12.7779 6.81309C12.3272 6.97115 11.8918 7.16136 11.4745 7.3809C11.3765 7.32156 11.2645 7.25026 11.1319 7.16493L11.0608 7.11916C10.8976 7.01393 10.7103 6.89321 10.5198 6.77746C10.1042 6.52487 9.53224 6.20557 8.92223 6.06567C8.26222 5.91431 7.37164 5.94283 6.65726 6.65721C5.94832 7.36615 5.91254 8.25406 6.04437 8.9078C6.16845 9.52311 6.46717 10.1087 6.70971 10.5424C6.82368 10.7463 6.94258 10.9459 7.0463 11.1201L7.08183 11.1798C7.17807 11.3416 7.25675 11.4753 7.32053 11.5913C7.12638 11.9729 6.95658 12.3691 6.81322 12.7778C6.66534 12.8236 6.48799 12.8705 6.26494 12.9283L6.21063 12.9423C6.00021 12.9968 5.75776 13.0595 5.51544 13.1303C5.012 13.2773 4.35788 13.4991 3.81377 13.885C3.22337 14.3038 2.66675 14.9943 2.66675 16C2.66675 17.0058 3.22337 17.6963 3.81377 18.115C4.35788 18.5009 5.012 18.7227 5.51544 18.8697C5.75781 18.9405 6.00026 19.0033 6.21071 19.0577L6.26494 19.0718C6.48799 19.1296 6.66534 19.1764 6.81322 19.2222C6.95428 19.6244 7.12094 20.0145 7.3112 20.3904C7.24719 20.5003 7.16949 20.6262 7.07495 20.7784L7.05607 20.8088C6.9445 20.9885 6.81467 21.1975 6.69013 21.4133C6.43985 21.8469 6.13075 22.4392 6.0096 23.0736C5.87771 23.7641 5.95307 24.6386 6.65726 25.3428C7.36559 26.0512 8.24264 26.1218 8.94042 25.9696C9.57009 25.8323 10.1489 25.5018 10.5643 25.2413C10.7665 25.1146 10.9628 24.9826 11.1314 24.8693L11.1737 24.8409C11.2972 24.758 11.4018 24.6882 11.4938 24.6293C11.9053 24.8445 12.3342 25.0313 12.7779 25.187C12.8237 25.3348 12.8706 25.5122 12.9284 25.7352L12.9424 25.7895C12.9969 25.9999 13.0597 26.2424 13.1304 26.4847C13.2775 26.9881 13.4993 27.6422 13.8852 28.1863C14.3039 28.7767 14.9944 29.3334 16.0001 29.3334C17.0059 29.3334 17.6964 28.7767 18.1151 28.1863C18.501 27.6422 18.7228 26.9881 18.8698 26.4847C18.9406 26.2423 19.0033 25.9999 19.0578 25.7894L19.0718 25.7352C19.1296 25.5122 19.1765 25.3348 19.2223 25.187C19.666 25.0313 20.0949 24.8445 20.5064 24.6293C20.5985 24.6882 20.7031 24.758 20.8265 24.8409L20.8689 24.8694C21.0375 24.9826 21.2338 25.1146 21.4359 25.2413C21.8513 25.5018 22.4301 25.8323 23.0598 25.9696C23.7576 26.1218 24.6346 26.0512 25.3429 25.3428C26.0471 24.6386 26.1224 23.7641 25.9905 23.0736C25.8694 22.4393 25.5603 21.8469 25.3101 21.4133C25.1855 21.1976 25.0557 20.9886 24.9442 20.8089L24.9253 20.7785C24.8307 20.6262 24.753 20.5003 24.689 20.3904C24.8793 20.0145 25.046 19.6244 25.187 19.2222C25.3349 19.1764 25.5122 19.1296 25.7353 19.0718L25.7897 19.0577C26.0001 19.0032 26.2424 18.9405 26.4847 18.8697C26.9882 18.7227 27.6423 18.5009 28.1864 18.115C28.7768 17.6963 29.3334 17.0058 29.3334 16.0001C29.3335 14.9943 28.7769 14.3038 28.1865 13.885C27.6423 13.4991 26.9882 13.2773 26.4848 13.1303C26.2424 13.0595 26 12.9968 25.7896 12.9423L25.7353 12.9283C25.5123 12.8705 25.3349 12.8236 25.187 12.7778C25.046 12.3756 24.8793 11.9856 24.689 11.6096C24.753 11.4997 24.8307 11.3738 24.9253 11.2216L24.9442 11.1911C25.0557 11.0115 25.1855 10.8025 25.3101 10.5867C25.5603 10.1531 25.8694 9.56077 25.9905 8.92647C26.1224 8.23594 26.0471 7.36144 25.3429 6.65725C24.6346 5.94887 23.7576 5.87825 23.0598 6.03043C22.4301 6.16775 21.8513 6.49826 21.4359 6.75872C21.2338 6.88547 21.0375 7.01741 20.8689 7.13069L20.8265 7.15917C20.7031 7.24208 20.5985 7.31185 20.5064 7.37074C20.0949 7.15549 19.666 6.96871 19.2223 6.81309C19.1765 6.66521 19.1296 6.48786 19.0718 6.26481L19.0578 6.2106C19.0033 6.00015 18.9406 5.7577 18.8698 5.51533C18.7228 5.0119 18.501 4.3578 18.1151 3.81369C17.6964 3.22332 17.0059 2.66669 16.0001 2.66669ZM13.9805 9.22581C14.5637 9.05223 14.8684 8.6101 14.9998 8.38448C15.1474 8.13126 15.2457 7.85449 15.3145 7.63644C15.3865 7.40786 15.4517 7.158 15.5098 6.93378L15.5223 6.88555C15.5786 6.668 15.6315 6.46388 15.6902 6.26283C15.8001 5.88656 15.9033 5.62289 16.0001 5.45196C16.097 5.62289 16.2002 5.88656 16.31 6.26283C16.3687 6.46385 16.4216 6.66787 16.4779 6.88538L16.4904 6.93378C16.5486 7.158 16.6137 7.40786 16.6858 7.63644C16.7545 7.85449 16.8529 8.13126 17.0004 8.38448C17.1319 8.6101 17.4365 9.05223 18.0198 9.22581C18.5938 9.39666 19.1377 9.63872 19.6411 9.94205C20.2106 10.2852 20.7813 10.1544 21.0258 10.0786C21.3034 9.99246 21.5561 9.85298 21.7381 9.74431C21.932 9.62863 22.1346 9.49293 22.3133 9.37289L22.35 9.34826C22.525 9.23068 22.6878 9.12132 22.8526 9.01798C23.002 8.92431 23.1313 8.84991 23.2425 8.7922C23.1833 8.92195 23.1036 9.07502 23.0005 9.25375C22.8981 9.43117 22.7889 9.60704 22.6721 9.79506L22.6598 9.81494C22.5446 10.0005 22.4152 10.209 22.3054 10.4069C22.2016 10.5939 22.072 10.8463 21.9924 11.1182C21.9251 11.3483 21.7977 11.9068 22.1222 12.4677C22.3956 12.9404 22.6157 13.4473 22.7743 13.9804C22.9479 14.5636 23.39 14.8683 23.6157 14.9997C23.8689 15.1473 24.1457 15.2456 24.3637 15.3144C24.5923 15.3864 24.8422 15.4516 25.0664 15.5097L25.1147 15.5222C25.3322 15.5785 25.5363 15.6314 25.7373 15.6901C26.1136 15.8 26.3773 15.9031 26.5482 16C26.3773 16.0969 26.1136 16.2001 25.7373 16.31C25.5362 16.3687 25.3322 16.4215 25.1146 16.4779L25.0663 16.4904C24.8421 16.5485 24.5922 16.6136 24.3637 16.6857C24.1456 16.7544 23.8689 16.8528 23.6156 17.0003C23.39 17.1318 22.9479 17.4365 22.7743 18.0197C22.6157 18.5527 22.3956 19.0597 22.1222 19.5324C21.7977 20.0932 21.9251 20.6517 21.9924 20.8818C22.072 21.1537 22.2016 21.4061 22.3054 21.5932C22.4152 21.791 22.5446 21.9996 22.6598 22.1851L22.6722 22.2051C22.7889 22.393 22.8981 22.5689 23.0005 22.7463C23.1036 22.925 23.1833 23.0781 23.2425 23.2078C23.1313 23.1501 23.002 23.0757 22.8526 22.9821C22.6878 22.8787 22.525 22.7694 22.35 22.6518L22.3133 22.6272C22.1346 22.5071 21.932 22.3714 21.7381 22.2557C21.5561 22.1471 21.3034 22.0076 21.0258 21.9214C20.7813 21.8456 20.2106 21.7148 19.6411 22.058C19.1377 22.3613 18.5938 22.6034 18.0198 22.7742C17.4365 22.9478 17.1319 23.3899 17.0004 23.6156C16.8529 23.8688 16.7545 24.1455 16.6858 24.3636C16.6137 24.5922 16.5486 24.842 16.4904 25.0663L16.4779 25.1147C16.4216 25.3322 16.3687 25.5362 16.31 25.7372C16.2002 26.1135 16.097 26.3772 16.0001 26.5481C15.9033 26.3772 15.8001 26.1135 15.6902 25.7372C15.6315 25.5361 15.5786 25.3321 15.5223 25.1145L15.5098 25.0663C15.4517 24.842 15.3865 24.5922 15.3145 24.3636C15.2457 24.1455 15.1474 23.8688 14.9998 23.6156C14.8684 23.3899 14.5637 22.9478 13.9805 22.7742C13.4064 22.6034 12.8626 22.3613 12.3592 22.058C11.7896 21.7148 11.2189 21.8456 10.9745 21.9214C10.6968 22.0076 10.4442 22.1471 10.2621 22.2557C10.0683 22.3714 9.86567 22.5071 9.68694 22.6272L9.65024 22.6518C9.47524 22.7694 9.31247 22.8787 9.14768 22.9821C8.99823 23.0758 8.86881 23.1502 8.75766 23.2079C8.81684 23.0781 8.89652 22.9251 8.99969 22.7463C9.10207 22.5689 9.21127 22.3931 9.328 22.2051L9.34041 22.1851C9.45561 21.9996 9.58499 21.791 9.69483 21.5932C9.79866 21.4062 9.92817 21.1537 10.0078 20.8819C10.0751 20.6518 10.2025 20.0933 9.87806 19.5324C9.6046 19.0597 9.38458 18.5527 9.22594 18.0197C9.05236 17.4364 8.61021 17.1318 8.38459 17.0003C8.13136 16.8528 7.85459 16.7544 7.63654 16.6857C7.40796 16.6136 7.15809 16.5485 6.93386 16.4904L6.8856 16.4779C6.66805 16.4215 6.46396 16.3687 6.26291 16.31C5.88658 16.2001 5.62289 16.0969 5.45196 16C5.62289 15.9031 5.88658 15.8 6.26291 15.6901C6.46394 15.6314 6.66796 15.5785 6.88547 15.5222L6.93386 15.5097C7.15809 15.4516 7.40796 15.3864 7.63654 15.3144C7.85459 15.2456 8.13136 15.1473 8.38459 14.9997C8.61021 14.8683 9.05236 14.5636 9.22594 13.9804C9.38458 13.4473 9.6046 12.9404 9.87806 12.4677C10.1967 11.9169 10.0797 11.366 10.0175 11.1382C9.94324 10.8666 9.82001 10.6125 9.71911 10.4212C9.61254 10.2192 9.48708 10.0072 9.37368 9.81654L9.33844 9.75731C9.23236 9.57911 9.13238 9.41115 9.03722 9.24096C8.9657 9.11307 8.90489 8.99748 8.85406 8.89346C8.93928 8.94011 9.03276 8.99422 9.13501 9.05635C9.29294 9.15232 9.44803 9.25226 9.61348 9.35888L9.68864 9.40729C9.87246 9.5256 10.0787 9.65738 10.2767 9.76977C10.4632 9.87558 10.7178 10.0085 10.9952 10.0889C11.237 10.159 11.7998 10.2791 12.3592 9.94205C12.8626 9.63872 13.4064 9.39666 13.9805 9.22581Z" fill="#454A5F"/>
</svg>
