<svg class="status" width="124" height="28" viewBox="0 0 124 28" fill="none" xmlns="http://www.w3.org/2000/svg">
    <rect width="124" height="28" rx="14" fill="#C8FFC7"/>
    <path d="M13.1691 9.004H14.4991V13.848L19.5671 9.004H21.2891L16.5291 13.456L21.4571 19H19.7771L15.5211 14.268L14.4991 15.22V19H13.1691V9.004ZM22.255 19.084C22.1337 19.084 22.0077 19.07 21.877 19.042C21.7464 19.0233 21.639 19.0047 21.555 18.986V17.936C21.6484 17.964 21.7324 17.9827 21.807 17.992C21.891 18.0013 21.9704 18.006 22.045 18.006C22.353 18.006 22.5864 17.8847 22.745 17.642C22.913 17.3993 23.0344 17.026 23.109 16.522C23.193 16.018 23.2444 15.374 23.263 14.59C23.2817 13.7967 23.3004 12.854 23.319 11.762H28.401V19H27.211V12.812H24.467C24.439 13.6613 24.4064 14.4687 24.369 15.234C24.341 15.99 24.2617 16.6527 24.131 17.222C24.0004 17.7913 23.7904 18.244 23.501 18.58C23.2117 18.916 22.7964 19.084 22.255 19.084ZM36.2617 19.154C35.7484 19.154 35.291 19.07 34.8897 18.902C34.4884 18.7247 34.143 18.4867 33.8537 18.188C33.5644 17.88 33.3357 17.5207 33.1677 17.11C33.009 16.69 32.9157 16.2327 32.8877 15.738H31.3897V19H30.1997V11.762H31.3897V14.716H32.9297C32.9857 14.268 33.0977 13.8527 33.2657 13.47C33.443 13.0873 33.6717 12.7607 33.9517 12.49C34.2317 12.21 34.563 11.9907 34.9457 11.832C35.3377 11.6733 35.7764 11.594 36.2617 11.594C36.803 11.594 37.279 11.692 37.6897 11.888C38.1097 12.084 38.4644 12.3547 38.7537 12.7C39.043 13.036 39.2624 13.4373 39.4117 13.904C39.561 14.3613 39.6357 14.856 39.6357 15.388C39.6357 15.92 39.561 16.4147 39.4117 16.872C39.2624 17.3293 39.043 17.7307 38.7537 18.076C38.4644 18.412 38.1097 18.678 37.6897 18.874C37.279 19.0607 36.803 19.154 36.2617 19.154ZM36.2617 18.118C36.551 18.118 36.8264 18.0573 37.0877 17.936C37.349 17.8147 37.573 17.642 37.7597 17.418C37.9464 17.1847 38.0957 16.9 38.2077 16.564C38.3197 16.2187 38.3757 15.8267 38.3757 15.388C38.3757 14.9493 38.3197 14.562 38.2077 14.226C38.0957 13.8807 37.9464 13.5913 37.7597 13.358C37.573 13.1247 37.349 12.9473 37.0877 12.826C36.8264 12.7047 36.551 12.644 36.2617 12.644C35.963 12.644 35.683 12.7047 35.4217 12.826C35.1697 12.9473 34.9504 13.1247 34.7637 13.358C34.577 13.5913 34.4277 13.8807 34.3157 14.226C34.2037 14.562 34.1477 14.9493 34.1477 15.388C34.1477 16.2653 34.3437 16.942 34.7357 17.418C35.1277 17.8847 35.6364 18.118 36.2617 18.118ZM45.3815 16.06C45.1668 16.1533 44.8682 16.242 44.4855 16.326C44.1028 16.41 43.7015 16.452 43.2815 16.452C42.3855 16.452 41.7462 16.2607 41.3635 15.878C40.9808 15.486 40.7895 14.94 40.7895 14.24V11.762H41.9795V14.044C41.9795 14.52 42.0868 14.8747 42.3015 15.108C42.5255 15.332 42.9268 15.444 43.5055 15.444C43.8602 15.444 44.2102 15.4067 44.5555 15.332C44.9008 15.2573 45.1762 15.1733 45.3815 15.08V11.762H46.5715V19H45.3815V16.06ZM54.2681 19.154C53.9415 19.154 53.6335 19.1167 53.3441 19.042C53.0548 18.9767 52.7981 18.8647 52.5741 18.706C52.3595 18.538 52.1868 18.328 52.0561 18.076C51.9348 17.8147 51.8741 17.502 51.8741 17.138C51.8741 16.7273 51.9441 16.3913 52.0841 16.13C52.2241 15.8687 52.4061 15.6587 52.6301 15.5C52.8635 15.332 53.1248 15.206 53.4141 15.122C53.7128 15.038 54.0161 14.968 54.3241 14.912C54.6508 14.8467 54.9588 14.8 55.2481 14.772C55.5468 14.7347 55.8081 14.688 56.0321 14.632C56.2561 14.5667 56.4335 14.478 56.5641 14.366C56.6948 14.2447 56.7601 14.072 56.7601 13.848C56.7601 13.5867 56.7088 13.3767 56.6061 13.218C56.5128 13.0593 56.3868 12.938 56.2281 12.854C56.0788 12.77 55.9061 12.714 55.7101 12.686C55.5235 12.658 55.3368 12.644 55.1501 12.644C54.6461 12.644 54.2261 12.742 53.8901 12.938C53.5541 13.1247 53.3721 13.484 53.3441 14.016H52.1541C52.1728 13.568 52.2661 13.19 52.4341 12.882C52.6021 12.574 52.8261 12.3267 53.1061 12.14C53.3861 11.944 53.7035 11.804 54.0581 11.72C54.4221 11.636 54.8095 11.594 55.2201 11.594C55.5468 11.594 55.8688 11.6173 56.1861 11.664C56.5128 11.7107 56.8068 11.8087 57.0681 11.958C57.3295 12.098 57.5395 12.2987 57.6981 12.56C57.8568 12.8213 57.9361 13.162 57.9361 13.582V17.306C57.9361 17.586 57.9501 17.7913 57.9781 17.922C58.0155 18.0527 58.1275 18.118 58.3141 18.118C58.3981 18.118 58.5195 18.0947 58.6781 18.048V18.972C58.4728 19.0933 58.1881 19.154 57.8241 19.154C57.5161 19.154 57.2688 19.07 57.0821 18.902C56.9048 18.7247 56.8161 18.44 56.8161 18.048C56.4895 18.44 56.1068 18.7247 55.6681 18.902C55.2388 19.07 54.7721 19.154 54.2681 19.154ZM54.5341 18.118C54.9261 18.118 55.2621 18.0667 55.5421 17.964C55.8221 17.852 56.0508 17.7167 56.2281 17.558C56.4055 17.39 56.5361 17.2127 56.6201 17.026C56.7041 16.83 56.7461 16.648 56.7461 16.48V15.262C56.5968 15.3833 56.4008 15.4673 56.1581 15.514C55.9155 15.5607 55.6588 15.6027 55.3881 15.64C55.1268 15.6773 54.8608 15.7147 54.5901 15.752C54.3195 15.7893 54.0768 15.8547 53.8621 15.948C53.6475 16.0413 53.4701 16.1767 53.3301 16.354C53.1995 16.522 53.1341 16.7553 53.1341 17.054C53.1341 17.25 53.1715 17.418 53.2461 17.558C53.3301 17.6887 53.4328 17.796 53.5541 17.88C53.6848 17.964 53.8341 18.0247 54.0021 18.062C54.1701 18.0993 54.3475 18.118 54.5341 18.118ZM59.7856 11.762H60.9756V15.22L64.2936 11.762H65.8756L62.6696 14.898L66.2536 19H64.7276L61.7036 15.556L60.9756 16.27V19H59.7856V11.762ZM68.9048 12.812H66.3148V11.762H72.6848V12.812H70.0948V19H68.9048V12.812ZM73.6353 11.762H74.8253V17.67L78.2413 11.762H79.7673V19H78.5773V13.092L75.1613 19H73.6353V11.762ZM81.5649 11.762H84.9109C85.2283 11.762 85.5316 11.7853 85.8209 11.832C86.1196 11.8787 86.3856 11.9673 86.6189 12.098C86.8523 12.2193 87.0389 12.3967 87.1789 12.63C87.3189 12.8633 87.3889 13.162 87.3889 13.526C87.3889 13.918 87.2956 14.2353 87.1089 14.478C86.9223 14.7207 86.6609 14.9213 86.3249 15.08V15.094C86.7449 15.178 87.0763 15.374 87.3189 15.682C87.5709 15.99 87.6969 16.3867 87.6969 16.872C87.6969 17.18 87.6409 17.4647 87.5289 17.726C87.4263 17.9873 87.2769 18.2113 87.0809 18.398C86.8849 18.5847 86.6516 18.734 86.3809 18.846C86.1103 18.9487 85.8163 19 85.4989 19H81.5649V11.762ZM85.2749 17.992C85.6669 17.992 85.9609 17.88 86.1569 17.656C86.3623 17.4227 86.4649 17.1333 86.4649 16.788C86.4649 16.4613 86.3576 16.2 86.1429 16.004C85.9283 15.808 85.5689 15.71 85.0649 15.71H82.7409V17.992H85.2749ZM84.7849 14.73C85.2983 14.73 85.6529 14.6367 85.8489 14.45C86.0543 14.2633 86.1569 14.016 86.1569 13.708C86.1569 13.4093 86.0589 13.1807 85.8629 13.022C85.6669 12.854 85.3076 12.77 84.7849 12.77H82.7409V14.73H84.7849ZM89.1255 11.762H90.3155V14.646H93.9835V11.762H95.1735V19H93.9835V15.668H90.3155V19H89.1255V11.762ZM96.9595 11.762H98.1495V17.67L101.565 11.762H103.091V19H101.901V13.092L98.4855 19H96.9595V11.762ZM104.889 11.762H106.079V17.67L109.495 11.762H111.021V19H109.831V13.092L106.415 19H104.889V11.762ZM107.955 10.698C107.675 10.698 107.414 10.656 107.171 10.572C106.928 10.488 106.714 10.3667 106.527 10.208C106.35 10.0493 106.205 9.858 106.093 9.634C105.99 9.40067 105.939 9.13467 105.939 8.836H106.933C106.952 9.52667 107.288 9.872 107.941 9.872C108.268 9.872 108.515 9.78333 108.683 9.606C108.86 9.41933 108.949 9.16267 108.949 8.836H109.943C109.943 9.116 109.892 9.37267 109.789 9.606C109.686 9.83933 109.546 10.0353 109.369 10.194C109.192 10.3527 108.982 10.4787 108.739 10.572C108.496 10.656 108.235 10.698 107.955 10.698Z" fill="#0D7D0B"/>
</svg>