<svg width="144" height="28" viewBox="0 0 144 28" fill="none" xmlns="http://www.w3.org/2000/svg">
    <rect width="144" height="28" rx="14" fill="#FFC0CC"/>
    <path d="M13.5441 9.004H14.8741V13.848L19.9421 9.004H21.6641L16.9041 13.456L21.8321 19H20.1521L15.8961 14.268L14.8741 15.22V19H13.5441V9.004ZM22.63 19.084C22.5087 19.084 22.3827 19.07 22.252 19.042C22.1214 19.0233 22.014 19.0047 21.93 18.986V17.936C22.0234 17.964 22.1074 17.9827 22.182 17.992C22.266 18.0013 22.3454 18.006 22.42 18.006C22.728 18.006 22.9614 17.8847 23.12 17.642C23.288 17.3993 23.4094 17.026 23.484 16.522C23.568 16.018 23.6194 15.374 23.638 14.59C23.6567 13.7967 23.6754 12.854 23.694 11.762H28.776V19H27.586V12.812H24.842C24.814 13.6613 24.7814 14.4687 24.744 15.234C24.716 15.99 24.6367 16.6527 24.506 17.222C24.3754 17.7913 24.1654 18.244 23.876 18.58C23.5867 18.916 23.1714 19.084 22.63 19.084ZM36.6367 19.154C36.1234 19.154 35.666 19.07 35.2647 18.902C34.8634 18.7247 34.518 18.4867 34.2287 18.188C33.9394 17.88 33.7107 17.5207 33.5427 17.11C33.384 16.69 33.2907 16.2327 33.2627 15.738H31.7647V19H30.5747V11.762H31.7647V14.716H33.3047C33.3607 14.268 33.4727 13.8527 33.6407 13.47C33.818 13.0873 34.0467 12.7607 34.3267 12.49C34.6067 12.21 34.938 11.9907 35.3207 11.832C35.7127 11.6733 36.1514 11.594 36.6367 11.594C37.178 11.594 37.654 11.692 38.0647 11.888C38.4847 12.084 38.8394 12.3547 39.1287 12.7C39.418 13.036 39.6374 13.4373 39.7867 13.904C39.936 14.3613 40.0107 14.856 40.0107 15.388C40.0107 15.92 39.936 16.4147 39.7867 16.872C39.6374 17.3293 39.418 17.7307 39.1287 18.076C38.8394 18.412 38.4847 18.678 38.0647 18.874C37.654 19.0607 37.178 19.154 36.6367 19.154ZM36.6367 18.118C36.926 18.118 37.2014 18.0573 37.4627 17.936C37.724 17.8147 37.948 17.642 38.1347 17.418C38.3214 17.1847 38.4707 16.9 38.5827 16.564C38.6947 16.2187 38.7507 15.8267 38.7507 15.388C38.7507 14.9493 38.6947 14.562 38.5827 14.226C38.4707 13.8807 38.3214 13.5913 38.1347 13.358C37.948 13.1247 37.724 12.9473 37.4627 12.826C37.2014 12.7047 36.926 12.644 36.6367 12.644C36.338 12.644 36.058 12.7047 35.7967 12.826C35.5447 12.9473 35.3254 13.1247 35.1387 13.358C34.952 13.5913 34.8027 13.8807 34.6907 14.226C34.5787 14.562 34.5227 14.9493 34.5227 15.388C34.5227 16.2653 34.7187 16.942 35.1107 17.418C35.5027 17.8847 36.0114 18.118 36.6367 18.118ZM45.7565 16.06C45.5418 16.1533 45.2432 16.242 44.8605 16.326C44.4778 16.41 44.0765 16.452 43.6565 16.452C42.7605 16.452 42.1212 16.2607 41.7385 15.878C41.3558 15.486 41.1645 14.94 41.1645 14.24V11.762H42.3545V14.044C42.3545 14.52 42.4618 14.8747 42.6765 15.108C42.9005 15.332 43.3018 15.444 43.8805 15.444C44.2352 15.444 44.5852 15.4067 44.9305 15.332C45.2758 15.2573 45.5512 15.1733 45.7565 15.08V11.762H46.9465V19H45.7565V16.06ZM52.6411 11.762H53.8311V14.646H57.4991V11.762H58.6891V19H57.4991V15.668H53.8311V19H52.6411V11.762ZM63.5551 19.154C62.9764 19.154 62.4678 19.0607 62.0291 18.874C61.5998 18.6873 61.2404 18.426 60.9511 18.09C60.6618 17.754 60.4424 17.3527 60.2931 16.886C60.1531 16.4193 60.0831 15.9107 60.0831 15.36C60.0831 14.8187 60.1671 14.3193 60.3351 13.862C60.5031 13.3953 60.7364 12.994 61.0351 12.658C61.3431 12.322 61.7024 12.0607 62.1131 11.874C62.5331 11.6873 62.9904 11.594 63.4851 11.594C64.1291 11.594 64.6611 11.7293 65.0811 12C65.5104 12.2613 65.8511 12.5973 66.1031 13.008C66.3644 13.4187 66.5418 13.8667 66.6351 14.352C66.7378 14.8373 66.7798 15.2993 66.7611 15.738H61.3431C61.3338 16.0553 61.3711 16.3587 61.4551 16.648C61.5391 16.928 61.6744 17.18 61.8611 17.404C62.0478 17.6187 62.2858 17.7913 62.5751 17.922C62.8644 18.0527 63.2051 18.118 63.5971 18.118C64.1011 18.118 64.5118 18.0013 64.8291 17.768C65.1558 17.5347 65.3704 17.18 65.4731 16.704H66.6491C66.4904 17.5253 66.1404 18.1413 65.5991 18.552C65.0578 18.9533 64.3764 19.154 63.5551 19.154ZM65.5011 14.688C65.4824 14.408 65.4171 14.142 65.3051 13.89C65.2024 13.638 65.0578 13.4233 64.8711 13.246C64.6938 13.0593 64.4791 12.9147 64.2271 12.812C63.9844 12.7 63.7138 12.644 63.4151 12.644C63.1071 12.644 62.8271 12.7 62.5751 12.812C62.3324 12.9147 62.1224 13.0593 61.9451 13.246C61.7678 13.4327 61.6278 13.652 61.5251 13.904C61.4224 14.1467 61.3618 14.408 61.3431 14.688H65.5011ZM73.8931 19.154C73.5665 19.154 73.2585 19.1167 72.9691 19.042C72.6798 18.9767 72.4231 18.8647 72.1991 18.706C71.9845 18.538 71.8118 18.328 71.6811 18.076C71.5598 17.8147 71.4991 17.502 71.4991 17.138C71.4991 16.7273 71.5691 16.3913 71.7091 16.13C71.8491 15.8687 72.0311 15.6587 72.2551 15.5C72.4885 15.332 72.7498 15.206 73.0391 15.122C73.3378 15.038 73.6411 14.968 73.9491 14.912C74.2758 14.8467 74.5838 14.8 74.8731 14.772C75.1718 14.7347 75.4331 14.688 75.6571 14.632C75.8811 14.5667 76.0585 14.478 76.1891 14.366C76.3198 14.2447 76.3851 14.072 76.3851 13.848C76.3851 13.5867 76.3338 13.3767 76.2311 13.218C76.1378 13.0593 76.0118 12.938 75.8531 12.854C75.7038 12.77 75.5311 12.714 75.3351 12.686C75.1485 12.658 74.9618 12.644 74.7751 12.644C74.2711 12.644 73.8511 12.742 73.5151 12.938C73.1791 13.1247 72.9971 13.484 72.9691 14.016H71.7791C71.7978 13.568 71.8911 13.19 72.0591 12.882C72.2271 12.574 72.4511 12.3267 72.7311 12.14C73.0111 11.944 73.3285 11.804 73.6831 11.72C74.0471 11.636 74.4345 11.594 74.8451 11.594C75.1718 11.594 75.4938 11.6173 75.8111 11.664C76.1378 11.7107 76.4318 11.8087 76.6931 11.958C76.9545 12.098 77.1645 12.2987 77.3231 12.56C77.4818 12.8213 77.5611 13.162 77.5611 13.582V17.306C77.5611 17.586 77.5751 17.7913 77.6031 17.922C77.6405 18.0527 77.7525 18.118 77.9391 18.118C78.0231 18.118 78.1445 18.0947 78.3031 18.048V18.972C78.0978 19.0933 77.8131 19.154 77.4491 19.154C77.1411 19.154 76.8938 19.07 76.7071 18.902C76.5298 18.7247 76.4411 18.44 76.4411 18.048C76.1145 18.44 75.7318 18.7247 75.2931 18.902C74.8638 19.07 74.3971 19.154 73.8931 19.154ZM74.1591 18.118C74.5511 18.118 74.8871 18.0667 75.1671 17.964C75.4471 17.852 75.6758 17.7167 75.8531 17.558C76.0305 17.39 76.1611 17.2127 76.2451 17.026C76.3291 16.83 76.3711 16.648 76.3711 16.48V15.262C76.2218 15.3833 76.0258 15.4673 75.7831 15.514C75.5405 15.5607 75.2838 15.6027 75.0131 15.64C74.7518 15.6773 74.4858 15.7147 74.2151 15.752C73.9445 15.7893 73.7018 15.8547 73.4871 15.948C73.2725 16.0413 73.0951 16.1767 72.9551 16.354C72.8245 16.522 72.7591 16.7553 72.7591 17.054C72.7591 17.25 72.7965 17.418 72.8711 17.558C72.9551 17.6887 73.0578 17.796 73.1791 17.88C73.3098 17.964 73.4591 18.0247 73.6271 18.062C73.7951 18.0993 73.9725 18.118 74.1591 18.118ZM79.4106 11.762H80.6006V15.22L83.9186 11.762H85.5006L82.2946 14.898L85.8786 19H84.3526L81.3286 15.556L80.6006 16.27V19H79.4106V11.762ZM88.5298 12.812H85.9398V11.762H92.3098V12.812H89.7198V19H88.5298V12.812ZM93.2603 11.762H94.4503V17.67L97.8663 11.762H99.3923V19H98.2023V13.092L94.7863 19H93.2603V11.762ZM101.19 11.762H104.536C104.853 11.762 105.157 11.7853 105.446 11.832C105.745 11.8787 106.011 11.9673 106.244 12.098C106.477 12.2193 106.664 12.3967 106.804 12.63C106.944 12.8633 107.014 13.162 107.014 13.526C107.014 13.918 106.921 14.2353 106.734 14.478C106.547 14.7207 106.286 14.9213 105.95 15.08V15.094C106.37 15.178 106.701 15.374 106.944 15.682C107.196 15.99 107.322 16.3867 107.322 16.872C107.322 17.18 107.266 17.4647 107.154 17.726C107.051 17.9873 106.902 18.2113 106.706 18.398C106.51 18.5847 106.277 18.734 106.006 18.846C105.735 18.9487 105.441 19 105.124 19H101.19V11.762ZM104.9 17.992C105.292 17.992 105.586 17.88 105.782 17.656C105.987 17.4227 106.09 17.1333 106.09 16.788C106.09 16.4613 105.983 16.2 105.768 16.004C105.553 15.808 105.194 15.71 104.69 15.71H102.366V17.992H104.9ZM104.41 14.73C104.923 14.73 105.278 14.6367 105.474 14.45C105.679 14.2633 105.782 14.016 105.782 13.708C105.782 13.4093 105.684 13.1807 105.488 13.022C105.292 12.854 104.933 12.77 104.41 12.77H102.366V14.73H104.41ZM108.75 11.762H109.94V14.646H113.608V11.762H114.798V19H113.608V15.668H109.94V19H108.75V11.762ZM116.584 11.762H117.774V17.67L121.19 11.762H122.716V19H121.526V13.092L118.11 19H116.584V11.762ZM124.514 11.762H125.704V17.67L129.12 11.762H130.646V19H129.456V13.092L126.04 19H124.514V11.762ZM127.58 10.698C127.3 10.698 127.039 10.656 126.796 10.572C126.553 10.488 126.339 10.3667 126.152 10.208C125.975 10.0493 125.83 9.858 125.718 9.634C125.615 9.40067 125.564 9.13467 125.564 8.836H126.558C126.577 9.52667 126.913 9.872 127.566 9.872C127.893 9.872 128.14 9.78333 128.308 9.606C128.485 9.41933 128.574 9.16267 128.574 8.836H129.568C129.568 9.116 129.517 9.37267 129.414 9.606C129.311 9.83933 129.171 10.0353 128.994 10.194C128.817 10.3527 128.607 10.4787 128.364 10.572C128.121 10.656 127.86 10.698 127.58 10.698Z" fill="#800017"/>
</svg>
