<svg width="140" height="28" viewBox="0 0 140 28" fill="none" xmlns="http://www.w3.org/2000/svg">
    <rect width="140" height="28" rx="14" fill="#FFF8BA"/>
    <path d="M17.5837 19.224C16.7903 19.224 16.095 19.084 15.4977 18.804C14.9003 18.5147 14.401 18.1273 13.9997 17.642C13.5983 17.1567 13.295 16.6013 13.0897 15.976C12.8937 15.3507 12.7957 14.6927 12.7957 14.002C12.7957 13.3207 12.8937 12.6673 13.0897 12.042C13.295 11.4073 13.5983 10.8473 13.9997 10.362C14.401 9.87667 14.9003 9.48933 15.4977 9.2C16.095 8.91067 16.7903 8.766 17.5837 8.766C18.377 8.766 19.0723 8.91067 19.6697 9.2C20.267 9.48933 20.7663 9.87667 21.1677 10.362C21.569 10.8473 21.8677 11.4073 22.0637 12.042C22.269 12.6673 22.3717 13.3207 22.3717 14.002C22.3717 14.6927 22.269 15.3507 22.0637 15.976C21.8677 16.6013 21.569 17.1567 21.1677 17.642C20.7663 18.1273 20.267 18.5147 19.6697 18.804C19.0723 19.084 18.377 19.224 17.5837 19.224ZM17.5837 18.118C18.1903 18.118 18.713 18.0013 19.1517 17.768C19.5903 17.5253 19.9497 17.208 20.2297 16.816C20.5097 16.424 20.715 15.9853 20.8457 15.5C20.9763 15.0053 21.0417 14.506 21.0417 14.002C21.0417 13.498 20.9763 13.0033 20.8457 12.518C20.715 12.0233 20.5097 11.58 20.2297 11.188C19.9497 10.796 19.5903 10.4833 19.1517 10.25C18.713 10.0073 18.1903 9.886 17.5837 9.886C16.977 9.886 16.4543 10.0073 16.0157 10.25C15.577 10.4833 15.2177 10.796 14.9377 11.188C14.6577 11.58 14.4523 12.0233 14.3217 12.518C14.191 13.0033 14.1257 13.498 14.1257 14.002C14.1257 14.506 14.191 15.0053 14.3217 15.5C14.4523 15.9853 14.6577 16.424 14.9377 16.816C15.2177 17.208 15.577 17.5253 16.0157 17.768C16.4543 18.0013 16.977 18.118 17.5837 18.118ZM28.1364 16.06C27.9217 16.1533 27.6231 16.242 27.2404 16.326C26.8577 16.41 26.4564 16.452 26.0364 16.452C25.1404 16.452 24.5011 16.2607 24.1184 15.878C23.7357 15.486 23.5444 14.94 23.5444 14.24V11.762H24.7344V14.044C24.7344 14.52 24.8417 14.8747 25.0564 15.108C25.2804 15.332 25.6817 15.444 26.2604 15.444C26.6151 15.444 26.9651 15.4067 27.3104 15.332C27.6557 15.2573 27.9311 15.1733 28.1364 15.08V11.762H29.3264V19H28.1364V16.06ZM31.1945 11.762H32.3845V19H31.1945V11.762ZM31.1945 9.004H32.3845V10.46H31.1945V9.004ZM34.228 11.762H35.418V15.22L38.736 11.762H40.318L37.112 14.898L40.696 19H39.17L36.146 15.556L35.418 16.27V19H34.228V11.762ZM42.3392 21.884C42.1992 21.884 42.0592 21.8747 41.9192 21.856C41.7792 21.8373 41.6438 21.8047 41.5132 21.758V20.666C41.6252 20.7033 41.7372 20.7407 41.8492 20.778C41.9705 20.8153 42.0918 20.834 42.2132 20.834C42.4558 20.834 42.6518 20.778 42.8012 20.666C42.9505 20.554 43.0812 20.3907 43.1932 20.176L43.6832 18.958L40.8132 11.762H42.1572L44.2712 17.684H44.2992L46.3292 11.762H47.5892L44.4392 19.952C44.2992 20.3067 44.1592 20.6053 44.0192 20.848C43.8885 21.0907 43.7392 21.2867 43.5712 21.436C43.4125 21.5947 43.2305 21.7067 43.0252 21.772C42.8292 21.8467 42.6005 21.884 42.3392 21.884ZM54.6592 19.154C54.1458 19.154 53.6885 19.07 53.2872 18.902C52.8858 18.7247 52.5405 18.4867 52.2512 18.188C51.9618 17.88 51.7332 17.5207 51.5652 17.11C51.4065 16.69 51.3132 16.2327 51.2852 15.738H49.7872V19H48.5972V11.762H49.7872V14.716H51.3272C51.3832 14.268 51.4952 13.8527 51.6632 13.47C51.8405 13.0873 52.0692 12.7607 52.3492 12.49C52.6292 12.21 52.9605 11.9907 53.3432 11.832C53.7352 11.6733 54.1738 11.594 54.6592 11.594C55.2005 11.594 55.6765 11.692 56.0872 11.888C56.5072 12.084 56.8618 12.3547 57.1512 12.7C57.4405 13.036 57.6598 13.4373 57.8092 13.904C57.9585 14.3613 58.0332 14.856 58.0332 15.388C58.0332 15.92 57.9585 16.4147 57.8092 16.872C57.6598 17.3293 57.4405 17.7307 57.1512 18.076C56.8618 18.412 56.5072 18.678 56.0872 18.874C55.6765 19.0607 55.2005 19.154 54.6592 19.154ZM54.6592 18.118C54.9485 18.118 55.2238 18.0573 55.4852 17.936C55.7465 17.8147 55.9705 17.642 56.1572 17.418C56.3438 17.1847 56.4932 16.9 56.6052 16.564C56.7172 16.2187 56.7732 15.8267 56.7732 15.388C56.7732 14.9493 56.7172 14.562 56.6052 14.226C56.4932 13.8807 56.3438 13.5913 56.1572 13.358C55.9705 13.1247 55.7465 12.9473 55.4852 12.826C55.2238 12.7047 54.9485 12.644 54.6592 12.644C54.3605 12.644 54.0805 12.7047 53.8192 12.826C53.5672 12.9473 53.3478 13.1247 53.1612 13.358C52.9745 13.5913 52.8252 13.8807 52.7132 14.226C52.6012 14.562 52.5452 14.9493 52.5452 15.388C52.5452 16.2653 52.7412 16.942 53.1332 17.418C53.5252 17.8847 54.0338 18.118 54.6592 18.118ZM63.3355 11.762H69.2435V19H68.0535V12.812H64.5255V19H63.3355V11.762ZM74.1127 19.154C73.5341 19.154 73.0254 19.0607 72.5867 18.874C72.1574 18.6873 71.7981 18.426 71.5087 18.09C71.2194 17.754 71.0001 17.3527 70.8507 16.886C70.7107 16.4193 70.6407 15.9107 70.6407 15.36C70.6407 14.8187 70.7247 14.3193 70.8927 13.862C71.0607 13.3953 71.2941 12.994 71.5927 12.658C71.9007 12.322 72.2601 12.0607 72.6707 11.874C73.0907 11.6873 73.5481 11.594 74.0427 11.594C74.6867 11.594 75.2187 11.7293 75.6387 12C76.0681 12.2613 76.4087 12.5973 76.6607 13.008C76.9221 13.4187 77.0994 13.8667 77.1927 14.352C77.2954 14.8373 77.3374 15.2993 77.3187 15.738H71.9007C71.8914 16.0553 71.9287 16.3587 72.0127 16.648C72.0967 16.928 72.2321 17.18 72.4187 17.404C72.6054 17.6187 72.8434 17.7913 73.1327 17.922C73.4221 18.0527 73.7627 18.118 74.1547 18.118C74.6587 18.118 75.0694 18.0013 75.3867 17.768C75.7134 17.5347 75.9281 17.18 76.0307 16.704H77.2067C77.0481 17.5253 76.6981 18.1413 76.1567 18.552C75.6154 18.9533 74.9341 19.154 74.1127 19.154ZM76.0587 14.688C76.0401 14.408 75.9747 14.142 75.8627 13.89C75.7601 13.638 75.6154 13.4233 75.4287 13.246C75.2514 13.0593 75.0367 12.9147 74.7847 12.812C74.5421 12.7 74.2714 12.644 73.9727 12.644C73.6647 12.644 73.3847 12.7 73.1327 12.812C72.8901 12.9147 72.6801 13.0593 72.5027 13.246C72.3254 13.4327 72.1854 13.652 72.0827 13.904C71.9801 14.1467 71.9194 14.408 71.9007 14.688H76.0587ZM78.5943 11.762H79.7843V12.742H79.8123C80.0083 12.3407 80.3163 12.0513 80.7363 11.874C81.1563 11.6873 81.6183 11.594 82.1223 11.594C82.6823 11.594 83.1676 11.6967 83.5783 11.902C83.9983 12.1073 84.3436 12.3873 84.6143 12.742C84.8943 13.0873 85.1043 13.4887 85.2443 13.946C85.3843 14.4033 85.4543 14.8887 85.4543 15.402C85.4543 15.9247 85.3843 16.4147 85.2443 16.872C85.1136 17.32 84.9083 17.7167 84.6283 18.062C84.3576 18.398 84.0123 18.664 83.5923 18.86C83.1816 19.056 82.7009 19.154 82.1503 19.154C81.9636 19.154 81.7629 19.1353 81.5483 19.098C81.3336 19.0607 81.1189 19 80.9043 18.916C80.6896 18.832 80.4843 18.72 80.2883 18.58C80.1016 18.4307 79.9429 18.2487 79.8123 18.034H79.7843V21.758H78.5943V11.762ZM82.0243 18.118C82.4256 18.118 82.7663 18.0387 83.0463 17.88C83.3263 17.7213 83.5503 17.5113 83.7183 17.25C83.8863 16.9887 84.0076 16.69 84.0823 16.354C84.1569 16.018 84.1943 15.6727 84.1943 15.318C84.1943 14.982 84.1476 14.6553 84.0543 14.338C83.9703 14.0113 83.8349 13.722 83.6483 13.47C83.4709 13.218 83.2376 13.0173 82.9483 12.868C82.6683 12.7187 82.3369 12.644 81.9543 12.644C81.5529 12.644 81.2123 12.7233 80.9323 12.882C80.6523 13.0407 80.4236 13.2507 80.2463 13.512C80.0689 13.764 79.9383 14.0533 79.8543 14.38C79.7796 14.7067 79.7423 15.038 79.7423 15.374C79.7423 15.7287 79.7843 16.074 79.8683 16.41C79.9523 16.7367 80.0829 17.026 80.2603 17.278C80.4469 17.53 80.6849 17.7353 80.9743 17.894C81.2636 18.0433 81.6136 18.118 82.0243 18.118ZM89.9311 19.154C89.3524 19.154 88.8437 19.0607 88.4051 18.874C87.9757 18.6873 87.6164 18.426 87.3271 18.09C87.0377 17.754 86.8184 17.3527 86.6691 16.886C86.5291 16.4193 86.4591 15.9107 86.4591 15.36C86.4591 14.8187 86.5431 14.3193 86.7111 13.862C86.8791 13.3953 87.1124 12.994 87.4111 12.658C87.7191 12.322 88.0784 12.0607 88.4891 11.874C88.9091 11.6873 89.3664 11.594 89.8611 11.594C90.5051 11.594 91.0371 11.7293 91.4571 12C91.8864 12.2613 92.2271 12.5973 92.4791 13.008C92.7404 13.4187 92.9177 13.8667 93.0111 14.352C93.1137 14.8373 93.1557 15.2993 93.1371 15.738H87.7191C87.7097 16.0553 87.7471 16.3587 87.8311 16.648C87.9151 16.928 88.0504 17.18 88.2371 17.404C88.4237 17.6187 88.6617 17.7913 88.9511 17.922C89.2404 18.0527 89.5811 18.118 89.9731 18.118C90.4771 18.118 90.8877 18.0013 91.2051 17.768C91.5317 17.5347 91.7464 17.18 91.8491 16.704H93.0251C92.8664 17.5253 92.5164 18.1413 91.9751 18.552C91.4337 18.9533 90.7524 19.154 89.9311 19.154ZM91.8771 14.688C91.8584 14.408 91.7931 14.142 91.6811 13.89C91.5784 13.638 91.4337 13.4233 91.2471 13.246C91.0697 13.0593 90.8551 12.9147 90.6031 12.812C90.3604 12.7 90.0897 12.644 89.7911 12.644C89.4831 12.644 89.2031 12.7 88.9511 12.812C88.7084 12.9147 88.4984 13.0593 88.3211 13.246C88.1437 13.4327 88.0037 13.652 87.9011 13.904C87.7984 14.1467 87.7377 14.408 87.7191 14.688H91.8771ZM94.3706 11.762H97.7166C98.0339 11.762 98.3373 11.7853 98.6266 11.832C98.9253 11.8787 99.1913 11.9673 99.4246 12.098C99.6579 12.2193 99.8446 12.3967 99.9846 12.63C100.125 12.8633 100.195 13.162 100.195 13.526C100.195 13.918 100.101 14.2353 99.9146 14.478C99.7279 14.7207 99.4666 14.9213 99.1306 15.08V15.094C99.5506 15.178 99.8819 15.374 100.125 15.682C100.377 15.99 100.503 16.3867 100.503 16.872C100.503 17.18 100.447 17.4647 100.335 17.726C100.232 17.9873 100.083 18.2113 99.8866 18.398C99.6906 18.5847 99.4573 18.734 99.1866 18.846C98.9159 18.9487 98.6219 19 98.3046 19H94.3706V11.762ZM98.0806 17.992C98.4726 17.992 98.7666 17.88 98.9626 17.656C99.1679 17.4227 99.2706 17.1333 99.2706 16.788C99.2706 16.4613 99.1633 16.2 98.9486 16.004C98.7339 15.808 98.3746 15.71 97.8706 15.71H95.5466V17.992H98.0806ZM97.5906 14.73C98.1039 14.73 98.4586 14.6367 98.6546 14.45C98.8599 14.2633 98.9626 14.016 98.9626 13.708C98.9626 13.4093 98.8646 13.1807 98.6686 13.022C98.4726 12.854 98.1133 12.77 97.5906 12.77H95.5466V14.73H97.5906ZM102.001 11.762H103.191V19H102.001V11.762ZM102.001 9.004H103.191V10.46H102.001V9.004ZM105.077 11.762H106.267V12.742H106.295C106.491 12.3407 106.799 12.0513 107.219 11.874C107.639 11.6873 108.101 11.594 108.605 11.594C109.165 11.594 109.65 11.6967 110.061 11.902C110.481 12.1073 110.826 12.3873 111.097 12.742C111.377 13.0873 111.587 13.4887 111.727 13.946C111.867 14.4033 111.937 14.8887 111.937 15.402C111.937 15.9247 111.867 16.4147 111.727 16.872C111.596 17.32 111.391 17.7167 111.111 18.062C110.84 18.398 110.495 18.664 110.075 18.86C109.664 19.056 109.183 19.154 108.633 19.154C108.446 19.154 108.245 19.1353 108.031 19.098C107.816 19.0607 107.601 19 107.387 18.916C107.172 18.832 106.967 18.72 106.771 18.58C106.584 18.4307 106.425 18.2487 106.295 18.034H106.267V21.758H105.077V11.762ZM108.507 18.118C108.908 18.118 109.249 18.0387 109.529 17.88C109.809 17.7213 110.033 17.5113 110.201 17.25C110.369 16.9887 110.49 16.69 110.565 16.354C110.639 16.018 110.677 15.6727 110.677 15.318C110.677 14.982 110.63 14.6553 110.537 14.338C110.453 14.0113 110.317 13.722 110.131 13.47C109.953 13.218 109.72 13.0173 109.431 12.868C109.151 12.7187 108.819 12.644 108.437 12.644C108.035 12.644 107.695 12.7233 107.415 12.882C107.135 13.0407 106.906 13.2507 106.729 13.512C106.551 13.764 106.421 14.0533 106.337 14.38C106.262 14.7067 106.225 15.038 106.225 15.374C106.225 15.7287 106.267 16.074 106.351 16.41C106.435 16.7367 106.565 17.026 106.743 17.278C106.929 17.53 107.167 17.7353 107.457 17.894C107.746 18.0433 108.096 18.118 108.507 18.118ZM113.334 11.762H114.524V15.22L117.842 11.762H119.424L116.218 14.898L119.802 19H118.276L115.252 15.556L114.524 16.27V19H113.334V11.762ZM120.703 11.762H121.893V17.67L125.309 11.762H126.835V19H125.645V13.092L122.229 19H120.703V11.762Z" fill="#756900"/>
</svg>
